<svg width="21" height="15" viewBox="0 0 21 15" fill="none" xmlns="http://www.w3.org/2000/svg">
<path d="M13.8634 7.48712L20.728 11.8286V2.96436L13.8634 7.48712Z" fill="#000000"/>
<path d="M0.36438 2.96436V11.8286L7.22896 7.48712L0.36438 2.96436Z" fill="#000000"/>
<path d="M19.4553 0.384277H1.63711C1.00177 0.384277 0.498785 0.85875 0.403076 1.46762L10.5462 8.14893L20.6893 1.46559C20.5936 0.856713 20.0906 0.384277 19.4553 0.384277Z" fill="#000000"/>
<path d="M12.6966 8.25732L10.8965 9.44452C10.7886 9.51376 10.6684 9.54838 10.5462 9.54838C10.4241 9.54838 10.3039 9.51376 10.196 9.44452L8.39584 8.25732L0.405151 13.3095C0.502897 13.9143 1.00384 14.3847 1.63715 14.3847H19.4553C20.0886 14.3847 20.5896 13.9143 20.6873 13.3095L12.6966 8.25732Z" fill="#000000"/>
</svg>
