<svg  viewBox="0 0 20 20" fill="none" xmlns="http://www.w3.org/2000/svg">
<path d="M16.1328 4.28906C16.9531 5.14844 17.5781 6.08594 18.0469 7.14062C18.5156 8.19531 18.75 9.28906 18.75 10.4219C18.75 11.9844 18.3203 13.4297 17.5391 14.7578C16.7578 16.0859 15.6641 17.1406 14.3359 17.9219C13.0078 18.7031 11.5625 19.0938 10 19.0938C8.51562 19.0938 7.10938 18.7422 5.85938 18.0391L1.25 19.25L2.5 14.7578C1.71875 13.4297 1.32812 11.9844 1.32812 10.4219C1.32812 8.85938 1.71875 7.41406 2.5 6.08594C3.28125 4.75781 4.33594 3.70312 5.66406 2.92188C6.99219 2.14062 8.4375 1.75 10 1.75C11.1328 1.75 12.2266 1.98438 13.2812 2.41406C14.3359 2.88281 15.2734 3.50781 16.1328 4.28906ZM10 17.6484C11.2891 17.6484 12.5 17.3359 13.6328 16.6719C14.7266 16.0469 15.625 15.1484 16.2891 14.0547C16.9531 12.9609 17.3047 11.75 17.3047 10.4219C17.3047 9.48438 17.1094 8.58594 16.7188 7.6875C16.3281 6.82812 15.7812 6.04688 15.0781 5.34375C14.375 4.64062 13.5938 4.13281 12.7344 3.74219C11.875 3.39062 10.9375 3.19531 10 3.19531C8.67188 3.19531 7.46094 3.54688 6.36719 4.17188C5.27344 4.83594 4.375 5.73438 3.75 6.82812C3.08594 7.92188 2.77344 9.13281 2.77344 10.4219C2.77344 11.8281 3.125 13.0781 3.90625 14.25L4.0625 14.5234L3.32031 17.1797L6.05469 16.4766L6.32812 16.6328C7.42188 17.3359 8.67188 17.6484 10 17.6484ZM13.9453 12.2188L14.0625 12.2969C14.2188 12.375 14.3359 12.4531 14.375 12.4922C14.375 12.5703 14.375 12.6875 14.375 12.8828C14.375 13.1172 14.2969 13.3125 14.2188 13.5469C14.1406 13.7812 13.9062 13.9766 13.5938 14.2109C13.2812 14.4453 13.0078 14.5625 12.7734 14.5625C12.3828 14.6406 12.0312 14.6406 11.7188 14.5625C11.3281 14.4844 10.7812 14.3281 10.1562 14.0156C8.82812 13.4688 7.61719 12.375 6.52344 10.8125L6.44531 10.7344C5.85938 9.95312 5.58594 9.21094 5.58594 8.50781C5.58594 7.84375 5.82031 7.25781 6.28906 6.75L6.32812 6.71094C6.48438 6.55469 6.67969 6.4375 6.91406 6.4375H7.38281C7.46094 6.4375 7.53906 6.47656 7.61719 6.51562C7.69531 6.55469 7.73438 6.63281 7.8125 6.78906L8.47656 8.39062C8.55469 8.54688 8.55469 8.70312 8.51562 8.78125C8.35938 9.05469 8.20312 9.28906 8.00781 9.48438C7.89062 9.60156 7.8125 9.67969 7.8125 9.75781C7.77344 9.83594 7.8125 9.875 7.89062 9.95312C8.24219 10.6562 8.67188 11.1641 9.17969 11.5547C9.53125 11.8672 10.0781 12.1797 10.8203 12.5312C11.0156 12.6484 11.1719 12.6484 11.2891 12.4922C11.6016 12.1016 11.8359 11.8281 11.9922 11.6328C12.0312 11.5547 12.1094 11.4766 12.1875 11.4766C12.2656 11.4766 12.3438 11.5156 12.4609 11.5156C12.6562 11.5938 13.1641 11.8281 13.9453 12.2188Z" fill="#55C380"/>
</svg>
