<svg width="29" height="26" viewBox="0 0 29 26" fill="none" xmlns="http://www.w3.org/2000/svg">
<path d="M28.9743 4.57928C28.7758 5.35106 28.5627 6.1155 28.3716 6.88729C27.5189 10.2832 26.6736 13.6864 25.821 17.0822C25.8063 17.1557 25.7769 17.2219 25.7548 17.3027C20.8742 17.3027 16.0009 17.3027 11.0762 17.3027C11.2967 18.1774 11.5025 19.0227 11.723 19.9048C11.8332 19.9048 11.9435 19.9048 12.0464 19.9048C15.6481 19.9048 19.2498 19.9048 22.8514 19.9048C24.3803 19.9048 25.5931 20.875 25.9092 22.3304C26.2694 23.9842 25.1448 25.6454 23.4542 25.9468C21.8003 26.2408 20.1759 25.0794 19.926 23.433C19.8378 22.867 19.9186 22.323 20.1171 21.7644C17.8752 21.7644 15.6554 21.7644 13.3989 21.7644C13.7884 22.8817 13.6782 23.9328 12.9285 24.8736C12.458 25.4617 11.8332 25.8218 11.0909 25.9541C9.59874 26.2187 8.14337 25.3146 7.66559 23.8593C7.26132 22.6318 7.70234 20.6472 9.83395 19.9709C8.32712 13.9436 6.8203 7.91634 5.31348 1.87434C3.77725 1.87434 2.26308 1.87434 0.748901 1.87434C0.748901 1.24956 0.748901 0.624781 0.748901 0C0.859157 0.00735036 0.969412 0.0220511 1.07967 0.0220511C2.88786 0.0220511 4.69605 0.0294014 6.50424 0.0147007C6.69534 0.0147007 6.7762 0.0735036 6.8203 0.257263C6.92321 0.712985 7.04081 1.16871 7.15107 1.61708C7.38628 2.55793 7.62149 3.49877 7.86405 4.45432C14.9057 4.45432 21.94 4.45432 28.9743 4.45432C28.9743 4.50577 28.9743 4.54252 28.9743 4.57928ZM8.36388 6.30661C8.36388 6.37276 8.34918 6.40216 8.35653 6.42422C8.63584 7.55617 8.91515 8.68078 9.20182 9.80538C9.21652 9.87154 9.35618 9.95239 9.43703 9.95239C10.0177 9.96709 10.591 9.95974 11.1717 9.95974C11.4363 9.95974 11.7009 9.95974 11.9803 9.95974C11.8332 8.76163 11.6936 7.59292 11.5392 6.43157C11.5319 6.38011 11.429 6.30661 11.3775 6.30661C10.3779 6.30661 9.37823 6.30661 8.36388 6.30661ZM18.4265 6.32131C18.4265 7.54147 18.4265 8.73958 18.4265 9.95239C19.338 9.95239 20.2347 9.95239 21.1462 9.95239C21.3005 8.73958 21.4475 7.54147 21.6019 6.32131C20.5287 6.32131 19.4923 6.32131 18.4265 6.32131ZM13.4209 6.32866C13.4062 6.36541 13.3989 6.38011 13.3989 6.39481C13.5385 7.53412 13.6782 8.67343 13.8252 9.81273C13.8325 9.87154 13.9649 9.96709 14.0457 9.96709C14.5896 9.98179 15.1262 9.97444 15.6701 9.97444C15.9642 9.97444 16.2508 9.97444 16.5522 9.97444C16.5522 8.73958 16.5522 7.54147 16.5522 6.32866C15.5011 6.32866 14.4573 6.32866 13.4209 6.32866ZM22.9984 9.96709C23.8952 9.96709 24.7331 9.97444 25.5784 9.95974C25.6372 9.95974 25.7328 9.82743 25.7548 9.74658C25.9018 9.18795 26.0341 8.62932 26.1738 8.0707C26.3135 7.49737 26.4605 6.92404 26.6075 6.32866C25.5417 6.32866 24.5053 6.32866 23.4542 6.32866C23.3072 7.52677 23.1528 8.72488 22.9984 9.96709ZM12.6712 15.4578C12.5168 14.2156 12.3625 13.0175 12.2155 11.8194C11.3702 11.8194 10.5543 11.8194 9.70164 11.8194C9.99566 13.0028 10.2823 14.1641 10.5837 15.3329C10.5984 15.3917 10.6939 15.4578 10.7601 15.4578C11.3775 15.4652 12.0023 15.4578 12.6712 15.4578ZM18.4118 11.8194C18.4118 13.0028 18.4118 14.1568 18.4192 15.3108C18.4192 15.3623 18.5294 15.4505 18.5882 15.4505C19.1542 15.4578 19.7275 15.4578 20.2935 15.4505C20.3523 15.4505 20.4626 15.3623 20.4699 15.3035C20.6243 14.1494 20.7639 12.9954 20.9109 11.8194C20.0804 11.8194 19.2645 11.8194 18.4118 11.8194ZM14.0751 11.812C14.2295 13.0469 14.3838 14.245 14.5308 15.4358C15.2291 15.4358 15.898 15.4358 16.5522 15.4358C16.5522 14.2156 16.5522 13.0175 16.5522 11.812C15.7289 11.812 14.9204 11.812 14.0751 11.812ZM22.7706 11.812C22.6162 13.0322 22.4692 14.2303 22.3149 15.4578C22.9323 15.4578 23.5203 15.4505 24.101 15.4652C24.2921 15.4725 24.3509 15.3917 24.3877 15.2226C24.6229 14.245 24.8728 13.2674 25.1154 12.2898C25.1521 12.1354 25.1889 11.9811 25.2256 11.812C24.395 11.812 23.6012 11.812 22.7706 11.812ZM11.7818 22.9552C11.7818 22.2863 11.2452 21.7497 10.5763 21.7497C9.90745 21.7497 9.37088 22.301 9.37823 22.9625C9.38558 23.6167 9.9148 24.1459 10.569 24.1533C11.2379 24.1533 11.7744 23.6241 11.7818 22.9552ZM24.1304 22.9625C24.1304 22.2936 23.6012 21.7497 22.9323 21.7497C22.2634 21.7497 21.7268 22.2863 21.7268 22.9552C21.7268 23.6167 22.2561 24.1459 22.9102 24.1533C23.5865 24.1533 24.1231 23.6314 24.1304 22.9625Z" fill="#B7B8C5"/>
</svg>
