<svg width="25" height="30" viewBox="0 0 20 23" fill="none" xmlns="http://www.w3.org/2000/svg">
<path fill-rule="evenodd" clip-rule="evenodd" d="M10.1782 1.48C9.03838 1.48 7.94522 1.9328 7.13923 2.73879C6.33324 3.54478 5.88044 4.63794 5.88044 5.77778C5.88044 6.91762 6.33324 8.01078 7.13923 8.81677C7.94522 9.62276 9.03838 10.0756 10.1782 10.0756C11.3181 10.0756 12.4112 9.62276 13.2172 8.81677C14.0232 8.01078 14.476 6.91762 14.476 5.77778C14.476 4.63794 14.0232 3.54478 13.2172 2.73879C12.4112 1.9328 11.3181 1.48 10.1782 1.48ZM6.17757 1.77713C7.23861 0.716088 8.67769 0.120003 10.1782 0.120003C11.6788 0.120003 13.1178 0.716088 14.1789 1.77713C15.2399 2.83817 15.836 4.27724 15.836 5.77778C15.836 7.27832 15.2399 8.71739 14.1789 9.77843C13.1178 10.8395 11.6788 11.4356 10.1782 11.4356C8.67769 11.4356 7.23861 10.8395 6.17757 9.77843C5.11653 8.71739 4.52044 7.27832 4.52044 5.77778C4.52044 4.27724 5.11653 2.83817 6.17757 1.77713ZM3.5377 14.9595C5.29888 13.1983 7.68754 12.2089 10.1782 12.2089C12.6689 12.2089 15.0576 13.1983 16.8187 14.9595C18.5799 16.7207 19.5693 19.1093 19.5693 21.6C19.5693 21.9756 19.2649 22.28 18.8893 22.28H1.46711C1.28676 22.28 1.1138 22.2084 0.986277 22.0808C0.858752 21.9533 0.787109 21.7803 0.787109 21.6C0.787109 19.1093 1.77653 16.7207 3.5377 14.9595ZM10.1782 13.5689C8.04824 13.5689 6.00549 14.415 4.49937 15.9211C3.15436 17.2662 2.33569 19.0391 2.17593 20.92H18.1805C18.0208 19.0391 17.2021 17.2662 15.8571 15.9211C14.351 14.415 12.3082 13.5689 10.1782 13.5689Z" fill="black"/>
</svg>
