<svg width="25" height="20" viewBox="0 0 25 20" fill="none" xmlns="http://www.w3.org/2000/svg">
<path d="M12.5551 18.8376C12.5492 18.841 12.5433 18.8445 12.5374 18.8479C12.5309 18.8441 12.5244 18.8402 12.5178 18.8363C12.1931 18.6445 11.7267 18.3619 11.1659 18.0017C10.0424 17.2802 8.54971 16.2538 7.06197 15.0299C5.56928 13.8019 4.11139 12.3993 3.03427 10.9301C1.94893 9.44971 1.31921 7.99605 1.31921 6.6451C1.31921 3.52754 3.8465 1.0002 6.96412 1.0002V1.00023L6.97191 1.00017C8.87696 0.985314 10.658 1.9435 11.6954 3.54141L12.5292 4.82583L13.3699 3.54589C14.416 1.95332 16.195 0.995998 18.1004 1.0002C21.213 1.01601 23.7325 3.53509 23.7489 6.64758C23.7482 8.02511 23.116 9.49101 22.0331 10.9725C20.9567 12.4449 19.4999 13.8437 18.0081 15.065C16.5211 16.2823 15.0292 17.2992 13.9063 18.0129C13.3458 18.3691 12.8796 18.6483 12.5551 18.8376Z" stroke="#B7B8C5" stroke-width="2"/>
</svg>
